<svg xmlns="http://www.w3.org/2000/svg" xmlns:xlink="http://www.w3.org/1999/xlink" width="462" zoomAndPan="magnify" viewBox="0 0 346.5 278.250005" height="371" preserveAspectRatio="xMidYMid meet" version="1.0"><defs><g/><clipPath id="c09f957a51"><path d="M 220.394531 150.96875 L 261.582031 150.96875 L 261.582031 192.15625 L 220.394531 192.15625 Z M 220.394531 150.96875 " clip-rule="nonzero"/></clipPath><clipPath id="4626ef17a3"><path d="M 240.988281 150.96875 C 229.613281 150.96875 220.394531 160.1875 220.394531 171.5625 C 220.394531 182.9375 229.613281 192.15625 240.988281 192.15625 C 252.363281 192.15625 261.582031 182.9375 261.582031 171.5625 C 261.582031 160.1875 252.363281 150.96875 240.988281 150.96875 Z M 240.988281 150.96875 " clip-rule="nonzero"/></clipPath><clipPath id="9528711e55"><path d="M 54.421875 16.53125 L 128.042969 16.53125 L 128.042969 90.15625 L 54.421875 90.15625 Z M 54.421875 16.53125 " clip-rule="nonzero"/></clipPath><clipPath id="39d0593578"><path d="M 91.230469 16.53125 C 70.902344 16.53125 54.421875 33.011719 54.421875 53.34375 C 54.421875 73.671875 70.902344 90.15625 91.230469 90.15625 C 111.5625 90.15625 128.042969 73.671875 128.042969 53.34375 C 128.042969 33.011719 111.5625 16.53125 91.230469 16.53125 Z M 91.230469 16.53125 " clip-rule="nonzero"/></clipPath><clipPath id="a10b3daea4"><path d="M 232.289062 162.863281 L 249.6875 162.863281 L 249.6875 180.261719 L 232.289062 180.261719 Z M 232.289062 162.863281 " clip-rule="nonzero"/></clipPath><clipPath id="2d37315486"><path d="M 240.988281 162.863281 C 236.183594 162.863281 232.289062 166.757812 232.289062 171.5625 C 232.289062 176.367188 236.183594 180.261719 240.988281 180.261719 C 245.792969 180.261719 249.6875 176.367188 249.6875 171.5625 C 249.6875 166.757812 245.792969 162.863281 240.988281 162.863281 Z M 240.988281 162.863281 " clip-rule="nonzero"/></clipPath></defs><g fill="#ffffff" fill-opacity="1"><g transform="translate(88.437143, 171.666878)"><g><path d="M 8.609375 -118.421875 L 42.921875 -118.421875 C 59.378906 -118.421875 73.445312 -112.796875 85.125 -101.546875 C 96.800781 -90.304688 102.640625 -76.21875 102.640625 -59.28125 C 102.640625 -42.25 96.820312 -28.109375 85.1875 -16.859375 C 73.5625 -5.617188 59.472656 0 42.921875 0 L 8.609375 0 Z M 35.59375 -24.109375 L 39.765625 -24.109375 C 49.617188 -24.109375 57.679688 -27.429688 63.953125 -34.078125 C 70.222656 -40.734375 73.40625 -49.085938 73.5 -59.140625 C 73.5 -69.191406 70.363281 -77.566406 64.09375 -84.265625 C 57.820312 -90.960938 49.710938 -94.3125 39.765625 -94.3125 L 35.59375 -94.3125 Z M 35.59375 -24.109375 "/></g></g></g><g fill="#ffffff" fill-opacity="1"><g transform="translate(156.070934, 172.023861)"><g><path d="M 52.25 -120.578125 C 58.664062 -120.578125 64.9375 -119.644531 71.0625 -117.78125 C 77.1875 -115.914062 81.726562 -114.070312 84.6875 -112.25 L 89 -109.375 L 78.09375 -87.84375 C 77.226562 -88.425781 76.03125 -89.171875 74.5 -90.078125 C 72.96875 -90.984375 70.097656 -92.203125 65.890625 -93.734375 C 61.679688 -95.265625 57.753906 -96.03125 54.109375 -96.03125 C 49.617188 -96.03125 46.148438 -95.070312 43.703125 -93.15625 C 41.265625 -91.25 40.046875 -88.664062 40.046875 -85.40625 C 40.046875 -83.78125 40.617188 -82.273438 41.765625 -80.890625 C 42.921875 -79.503906 44.882812 -78.019531 47.65625 -76.4375 C 50.4375 -74.851562 52.878906 -73.582031 54.984375 -72.625 C 57.085938 -71.675781 60.335938 -70.242188 64.734375 -68.328125 C 72.390625 -65.078125 78.921875 -60.648438 84.328125 -55.046875 C 89.734375 -49.453125 92.4375 -43.113281 92.4375 -36.03125 C 92.4375 -29.238281 91.21875 -23.304688 88.78125 -18.234375 C 86.34375 -13.160156 82.992188 -9.1875 78.734375 -6.3125 C 74.472656 -3.445312 69.757812 -1.320312 64.59375 0.0625 C 59.425781 1.457031 53.828125 2.15625 47.796875 2.15625 C 42.628906 2.15625 37.554688 1.628906 32.578125 0.578125 C 27.609375 -0.472656 23.445312 -1.785156 20.09375 -3.359375 C 16.75 -4.941406 13.734375 -6.5 11.046875 -8.03125 C 8.367188 -9.5625 6.410156 -10.859375 5.171875 -11.921875 L 3.296875 -13.5 L 16.796875 -36.171875 C 17.941406 -35.210938 19.519531 -33.988281 21.53125 -32.5 C 23.539062 -31.019531 27.101562 -29.035156 32.21875 -26.546875 C 37.34375 -24.066406 41.867188 -22.828125 45.796875 -22.828125 C 57.179688 -22.828125 62.875 -26.703125 62.875 -34.453125 C 62.875 -36.078125 62.46875 -37.582031 61.65625 -38.96875 C 60.84375 -40.351562 59.40625 -41.738281 57.34375 -43.125 C 55.289062 -44.519531 53.472656 -45.625 51.890625 -46.4375 C 50.316406 -47.25 47.734375 -48.492188 44.140625 -50.171875 C 40.546875 -51.847656 37.890625 -53.113281 36.171875 -53.96875 C 28.992188 -57.507812 23.441406 -61.9375 19.515625 -67.25 C 15.597656 -72.5625 13.640625 -78.28125 13.640625 -84.40625 C 13.640625 -95.03125 17.5625 -103.710938 25.40625 -110.453125 C 33.25 -117.203125 42.195312 -120.578125 52.25 -120.578125 Z M 52.25 -120.578125 "/></g></g></g><g clip-path="url(#c09f957a51)"><g clip-path="url(#4626ef17a3)"><path fill="#ffffff" d="M 220.394531 150.96875 L 261.582031 150.96875 L 261.582031 192.15625 L 220.394531 192.15625 Z M 220.394531 150.96875 " fill-opacity="1" fill-rule="nonzero"/></g></g><g clip-path="url(#9528711e55)"><g clip-path="url(#39d0593578)"><path fill="#ffffff" d="M 54.421875 16.53125 L 128.042969 16.53125 L 128.042969 90.15625 L 54.421875 90.15625 Z M 54.421875 16.53125 " fill-opacity="1" fill-rule="nonzero"/></g></g><g clip-path="url(#a10b3daea4)"><g clip-path="url(#2d37315486)"><path fill="#000000" d="M 232.289062 162.863281 L 249.6875 162.863281 L 249.6875 180.261719 L 232.289062 180.261719 Z M 232.289062 162.863281 " fill-opacity="1" fill-rule="nonzero"/></g></g><g fill="#ffffff" fill-opacity="1"><g transform="translate(71.054424, 196.85712)"><g><path d="M 5.25 -11.15625 C 6.0625 -11.15625 6.773438 -11.007812 7.390625 -10.71875 C 8.015625 -10.425781 8.53125 -10.023438 8.9375 -9.515625 C 9.351562 -9.015625 9.671875 -8.421875 9.890625 -7.734375 C 10.109375 -7.054688 10.21875 -6.332031 10.21875 -5.5625 C 10.21875 -4.789062 10.101562 -4.066406 9.875 -3.390625 C 9.644531 -2.710938 9.332031 -2.117188 8.9375 -1.609375 C 8.539062 -1.109375 8.066406 -0.710938 7.515625 -0.421875 C 6.972656 -0.140625 6.382812 0 5.75 0 L 0.75 0 L 0.75 -11.15625 Z M 5.265625 -2.15625 C 5.722656 -2.15625 6.109375 -2.242188 6.421875 -2.421875 C 6.742188 -2.609375 7.007812 -2.859375 7.21875 -3.171875 C 7.425781 -3.492188 7.578125 -3.859375 7.671875 -4.265625 C 7.773438 -4.671875 7.828125 -5.097656 7.828125 -5.546875 C 7.828125 -6.003906 7.78125 -6.4375 7.6875 -6.84375 C 7.59375 -7.257812 7.441406 -7.625 7.234375 -7.9375 C 7.023438 -8.257812 6.757812 -8.515625 6.4375 -8.703125 C 6.113281 -8.890625 5.722656 -8.984375 5.265625 -8.984375 L 3.140625 -8.984375 L 3.140625 -2.15625 Z M 5.265625 -2.15625 "/></g></g></g><g fill="#ffffff" fill-opacity="1"><g transform="translate(83.953978, 196.85712)"><g><path d="M 7.59375 -11.15625 L 12.25 0 L 9.671875 0 L 8.671875 -2.390625 L 3.9375 -2.390625 L 2.9375 0 L 0.34375 0 L 5 -11.15625 Z M 7.765625 -4.5625 L 6.3125 -8.078125 L 4.84375 -4.5625 Z M 7.765625 -4.5625 "/></g></g></g><g fill="#ffffff" fill-opacity="1"><g transform="translate(98.70973, 196.85712)"><g><path d="M 8.765625 -7.828125 C 8.765625 -7.472656 8.710938 -7.132812 8.609375 -6.8125 C 8.515625 -6.5 8.378906 -6.207031 8.203125 -5.9375 C 8.023438 -5.664062 7.804688 -5.425781 7.546875 -5.21875 C 7.296875 -5.019531 7.023438 -4.859375 6.734375 -4.734375 L 10.4375 0 L 7.640625 0 L 4.203125 -4.5 L 3.125 -4.5 L 3.125 0 L 0.734375 0 L 0.734375 -11.15625 L 5.546875 -11.15625 C 5.992188 -11.15625 6.410156 -11.066406 6.796875 -10.890625 C 7.191406 -10.722656 7.535156 -10.488281 7.828125 -10.1875 C 8.117188 -9.882812 8.347656 -9.53125 8.515625 -9.125 C 8.679688 -8.726562 8.765625 -8.296875 8.765625 -7.828125 Z M 5.25 -6.671875 C 5.5625 -6.671875 5.828125 -6.78125 6.046875 -7 C 6.265625 -7.226562 6.375 -7.503906 6.375 -7.828125 C 6.375 -8.148438 6.265625 -8.421875 6.046875 -8.640625 C 5.828125 -8.867188 5.5625 -8.984375 5.25 -8.984375 L 3.125 -8.984375 L 3.125 -6.671875 Z M 5.25 -6.671875 "/></g></g></g><g fill="#ffffff" fill-opacity="1"><g transform="translate(111.672206, 196.85712)"><g><path d="M 3.125 -2.15625 L 7.703125 -2.15625 L 7.703125 0 L 0.734375 0 L 0.734375 -11.15625 L 3.125 -11.15625 Z M 3.125 -2.15625 "/></g></g></g><g fill="#ffffff" fill-opacity="1"><g transform="translate(121.693071, 196.85712)"><g><path d="M 4.796875 -11.15625 L 4.796875 -9.140625 L 3.96875 -9.140625 L 3.96875 -2 L 4.796875 -2 L 4.796875 0 L 0.734375 0 L 0.734375 -2 L 1.578125 -2 L 1.578125 -9.140625 L 0.734375 -9.140625 L 0.734375 -11.15625 Z M 4.796875 -11.15625 "/></g></g></g><g fill="#ffffff" fill-opacity="1"><g transform="translate(129.370088, 196.85712)"><g><path d="M 8.375 -11.15625 L 10.75 -11.15625 L 10.75 0 L 8.484375 0 L 3.109375 -7.28125 L 3.109375 0 L 0.734375 0 L 0.734375 -11.15625 L 2.96875 -11.15625 L 8.375 -3.828125 Z M 8.375 -11.15625 "/></g></g></g><g fill="#ffffff" fill-opacity="1"><g transform="translate(143.008975, 196.85712)"><g><path d="M 6.265625 -6.3125 L 10.484375 -6.3125 L 10.484375 -2.21875 C 9.847656 -1.414062 9.144531 -0.8125 8.375 -0.40625 C 7.613281 0 6.816406 0.203125 5.984375 0.203125 C 5.222656 0.203125 4.503906 0.0507812 3.828125 -0.25 C 3.160156 -0.5625 2.582031 -0.976562 2.09375 -1.5 C 1.601562 -2.03125 1.210938 -2.644531 0.921875 -3.34375 C 0.628906 -4.039062 0.484375 -4.78125 0.484375 -5.5625 C 0.484375 -6.351562 0.628906 -7.09375 0.921875 -7.78125 C 1.210938 -8.476562 1.601562 -9.085938 2.09375 -9.609375 C 2.582031 -10.140625 3.160156 -10.554688 3.828125 -10.859375 C 4.503906 -11.160156 5.222656 -11.3125 5.984375 -11.3125 C 6.691406 -11.3125 7.363281 -11.179688 8 -10.921875 C 8.632812 -10.660156 9.25 -10.222656 9.84375 -9.609375 L 8.46875 -7.9375 C 8.019531 -8.34375 7.601562 -8.613281 7.21875 -8.75 C 6.832031 -8.894531 6.425781 -8.96875 6 -8.96875 C 5.550781 -8.96875 5.132812 -8.878906 4.75 -8.703125 C 4.375 -8.523438 4.039062 -8.28125 3.75 -7.96875 C 3.46875 -7.664062 3.242188 -7.304688 3.078125 -6.890625 C 2.921875 -6.484375 2.84375 -6.039062 2.84375 -5.5625 C 2.84375 -5.09375 2.921875 -4.65625 3.078125 -4.25 C 3.242188 -3.84375 3.46875 -3.484375 3.75 -3.171875 C 4.039062 -2.859375 4.375 -2.613281 4.75 -2.4375 C 5.132812 -2.257812 5.550781 -2.171875 6 -2.171875 C 6.382812 -2.171875 6.765625 -2.238281 7.140625 -2.375 C 7.523438 -2.519531 7.914062 -2.753906 8.3125 -3.078125 L 8.3125 -4.296875 L 6.265625 -4.296875 Z M 6.265625 -6.3125 "/></g></g></g><g fill="#ffffff" fill-opacity="1"><g transform="translate(156.175945, 196.85712)"><g><path d="M 0.359375 -11.15625 L 8.4375 -11.15625 L 8.4375 -8.984375 L 5.578125 -8.984375 L 5.578125 0 L 3.203125 0 L 3.203125 -8.984375 L 0.359375 -8.984375 Z M 0.359375 -11.15625 "/></g></g></g><g fill="#ffffff" fill-opacity="1"><g transform="translate(167.124915, 196.85712)"><g><path d="M 6.015625 -11.3125 C 6.765625 -11.3125 7.472656 -11.160156 8.140625 -10.859375 C 8.816406 -10.554688 9.40625 -10.140625 9.90625 -9.609375 C 10.40625 -9.085938 10.796875 -8.476562 11.078125 -7.78125 C 11.367188 -7.09375 11.515625 -6.351562 11.515625 -5.5625 C 11.515625 -4.789062 11.367188 -4.050781 11.078125 -3.34375 C 10.796875 -2.644531 10.40625 -2.03125 9.90625 -1.5 C 9.40625 -0.976562 8.816406 -0.5625 8.140625 -0.25 C 7.472656 0.0507812 6.765625 0.203125 6.015625 0.203125 C 5.253906 0.203125 4.535156 0.0507812 3.859375 -0.25 C 3.191406 -0.5625 2.613281 -0.976562 2.125 -1.5 C 1.632812 -2.03125 1.242188 -2.644531 0.953125 -3.34375 C 0.660156 -4.050781 0.515625 -4.789062 0.515625 -5.5625 C 0.515625 -6.351562 0.660156 -7.09375 0.953125 -7.78125 C 1.242188 -8.476562 1.632812 -9.085938 2.125 -9.609375 C 2.613281 -10.140625 3.191406 -10.554688 3.859375 -10.859375 C 4.535156 -11.160156 5.253906 -11.3125 6.015625 -11.3125 Z M 6.015625 -2.171875 C 6.441406 -2.171875 6.84375 -2.257812 7.21875 -2.4375 C 7.59375 -2.613281 7.921875 -2.859375 8.203125 -3.171875 C 8.492188 -3.484375 8.71875 -3.84375 8.875 -4.25 C 9.039062 -4.65625 9.125 -5.09375 9.125 -5.5625 C 9.125 -6.039062 9.039062 -6.484375 8.875 -6.890625 C 8.71875 -7.304688 8.492188 -7.671875 8.203125 -7.984375 C 7.921875 -8.296875 7.59375 -8.539062 7.21875 -8.71875 C 6.84375 -8.894531 6.441406 -8.984375 6.015625 -8.984375 C 5.578125 -8.984375 5.171875 -8.894531 4.796875 -8.71875 C 4.421875 -8.539062 4.09375 -8.296875 3.8125 -7.984375 C 3.53125 -7.671875 3.304688 -7.304688 3.140625 -6.890625 C 2.972656 -6.484375 2.890625 -6.039062 2.890625 -5.5625 C 2.890625 -5.09375 2.972656 -4.65625 3.140625 -4.25 C 3.304688 -3.84375 3.53125 -3.484375 3.8125 -3.171875 C 4.09375 -2.859375 4.421875 -2.613281 4.796875 -2.4375 C 5.171875 -2.257812 5.578125 -2.171875 6.015625 -2.171875 Z M 6.015625 -2.171875 "/></g></g></g><g fill="#ffffff" fill-opacity="1"><g transform="translate(181.314378, 196.85712)"><g><path d="M 8.375 -11.15625 L 10.75 -11.15625 L 10.75 0 L 8.484375 0 L 3.109375 -7.28125 L 3.109375 0 L 0.734375 0 L 0.734375 -11.15625 L 2.96875 -11.15625 L 8.375 -3.828125 Z M 8.375 -11.15625 "/></g></g></g><g fill="#ffffff" fill-opacity="1"><g transform="translate(194.953271, 196.85712)"><g/></g></g><g fill="#ffffff" fill-opacity="1"><g transform="translate(201.434775, 196.85712)"><g><path d="M 7.828125 -5.75 C 8.273438 -5.476562 8.613281 -5.140625 8.84375 -4.734375 C 9.070312 -4.328125 9.1875 -3.851562 9.1875 -3.3125 C 9.1875 -2.8125 9.066406 -2.34375 8.828125 -1.90625 C 8.585938 -1.476562 8.242188 -1.09375 7.796875 -0.75 C 7.398438 -0.445312 6.945312 -0.210938 6.4375 -0.046875 C 5.9375 0.109375 5.398438 0.191406 4.828125 0.203125 C 4.265625 0.203125 3.722656 0.125 3.203125 -0.03125 C 2.691406 -0.1875 2.238281 -0.421875 1.84375 -0.734375 C 1.238281 -1.191406 0.828125 -1.738281 0.609375 -2.375 L 2.8125 -3.40625 C 2.8125 -3.289062 2.847656 -3.15625 2.921875 -3 C 2.992188 -2.84375 3.109375 -2.691406 3.265625 -2.546875 C 3.429688 -2.398438 3.640625 -2.273438 3.890625 -2.171875 C 4.140625 -2.066406 4.445312 -2.015625 4.8125 -2.015625 C 5.101562 -2.015625 5.363281 -2.050781 5.59375 -2.125 C 5.820312 -2.195312 6.007812 -2.285156 6.15625 -2.390625 C 6.3125 -2.503906 6.425781 -2.628906 6.5 -2.765625 C 6.582031 -2.910156 6.625 -3.054688 6.625 -3.203125 C 6.625 -3.378906 6.566406 -3.539062 6.453125 -3.6875 C 6.347656 -3.832031 6.179688 -3.945312 5.953125 -4.03125 C 5.523438 -4.175781 5.078125 -4.296875 4.609375 -4.390625 C 4.148438 -4.492188 3.695312 -4.617188 3.25 -4.765625 C 2.8125 -4.921875 2.40625 -5.125 2.03125 -5.375 C 1.65625 -5.632812 1.359375 -5.988281 1.140625 -6.4375 C 0.929688 -6.832031 0.828125 -7.253906 0.828125 -7.703125 C 0.828125 -8.210938 0.945312 -8.703125 1.1875 -9.171875 C 1.425781 -9.640625 1.75 -10.039062 2.15625 -10.375 C 2.539062 -10.675781 2.972656 -10.90625 3.453125 -11.0625 C 3.941406 -11.226562 4.453125 -11.3125 4.984375 -11.3125 C 5.523438 -11.3125 6.035156 -11.234375 6.515625 -11.078125 C 7.003906 -10.921875 7.441406 -10.691406 7.828125 -10.390625 C 8.210938 -10.097656 8.515625 -9.765625 8.734375 -9.390625 L 6.9375 -8.171875 C 6.71875 -8.472656 6.441406 -8.710938 6.109375 -8.890625 C 5.785156 -9.078125 5.414062 -9.171875 5 -9.171875 C 4.4375 -9.171875 4 -9.046875 3.6875 -8.796875 C 3.375 -8.546875 3.21875 -8.210938 3.21875 -7.796875 C 3.21875 -7.609375 3.304688 -7.441406 3.484375 -7.296875 C 3.660156 -7.148438 3.882812 -7.019531 4.15625 -6.90625 C 4.4375 -6.789062 4.75 -6.6875 5.09375 -6.59375 C 5.445312 -6.507812 5.789062 -6.421875 6.125 -6.328125 C 6.46875 -6.242188 6.789062 -6.15625 7.09375 -6.0625 C 7.394531 -5.96875 7.640625 -5.863281 7.828125 -5.75 Z M 7.828125 -5.75 "/></g></g></g><g fill="#ffffff" fill-opacity="1"><g transform="translate(213.28039, 196.85712)"><g><path d="M 8.234375 -11.15625 L 10.625 -11.15625 L 10.625 0 L 8.234375 0 L 8.234375 -4.796875 L 3.109375 -4.796875 L 3.109375 0 L 0.734375 0 L 0.734375 -11.15625 L 3.109375 -11.15625 L 3.109375 -6.96875 L 8.234375 -6.96875 Z M 8.234375 -11.15625 "/></g></g></g><g fill="#ffffff" fill-opacity="1"><g transform="translate(226.793439, 196.85712)"><g><path d="M 0.75 -11.15625 L 7.71875 -11.15625 L 7.71875 -8.984375 L 3.140625 -8.984375 L 3.140625 -6.96875 L 7.171875 -6.96875 L 7.171875 -4.796875 L 3.140625 -4.796875 L 3.140625 -2.15625 L 7.71875 -2.15625 L 7.71875 0 L 0.75 0 Z M 0.75 -11.15625 "/></g></g></g><g fill="#ffffff" fill-opacity="1"><g transform="translate(237.427802, 196.85712)"><g><path d="M 8.765625 -7.828125 C 8.765625 -7.472656 8.710938 -7.132812 8.609375 -6.8125 C 8.515625 -6.5 8.378906 -6.207031 8.203125 -5.9375 C 8.023438 -5.664062 7.804688 -5.425781 7.546875 -5.21875 C 7.296875 -5.019531 7.023438 -4.859375 6.734375 -4.734375 L 10.4375 0 L 7.640625 0 L 4.203125 -4.5 L 3.125 -4.5 L 3.125 0 L 0.734375 0 L 0.734375 -11.15625 L 5.546875 -11.15625 C 5.992188 -11.15625 6.410156 -11.066406 6.796875 -10.890625 C 7.191406 -10.722656 7.535156 -10.488281 7.828125 -10.1875 C 8.117188 -9.882812 8.347656 -9.53125 8.515625 -9.125 C 8.679688 -8.726562 8.765625 -8.296875 8.765625 -7.828125 Z M 5.25 -6.671875 C 5.5625 -6.671875 5.828125 -6.78125 6.046875 -7 C 6.265625 -7.226562 6.375 -7.503906 6.375 -7.828125 C 6.375 -8.148438 6.265625 -8.421875 6.046875 -8.640625 C 5.828125 -8.867188 5.5625 -8.984375 5.25 -8.984375 L 3.125 -8.984375 L 3.125 -6.671875 Z M 5.25 -6.671875 "/></g></g></g><g fill="#ffffff" fill-opacity="1"><g transform="translate(250.390281, 196.85712)"><g><path d="M 4.796875 -11.15625 L 4.796875 -9.140625 L 3.96875 -9.140625 L 3.96875 -2 L 4.796875 -2 L 4.796875 0 L 0.734375 0 L 0.734375 -2 L 1.578125 -2 L 1.578125 -9.140625 L 0.734375 -9.140625 L 0.734375 -11.15625 Z M 4.796875 -11.15625 "/></g></g></g><g fill="#ffffff" fill-opacity="1"><g transform="translate(258.067304, 196.85712)"><g><path d="M 0.734375 -11.15625 L 7.703125 -11.15625 L 7.703125 -8.984375 L 3.125 -8.984375 L 3.125 -6.96875 L 7.15625 -6.96875 L 7.15625 -4.796875 L 3.125 -4.796875 L 3.125 0 L 0.734375 0 Z M 0.734375 -11.15625 "/></g></g></g><g fill="#ffffff" fill-opacity="1"><g transform="translate(268.135352, 196.85712)"><g><path d="M 0.734375 -11.15625 L 7.703125 -11.15625 L 7.703125 -8.984375 L 3.125 -8.984375 L 3.125 -6.96875 L 7.15625 -6.96875 L 7.15625 -4.796875 L 3.125 -4.796875 L 3.125 0 L 0.734375 0 Z M 0.734375 -11.15625 "/></g></g></g></svg>